<?xml version="1.0" standalone="no"?>
<!DOCTYPE svg PUBLIC "-//W3C//DTD SVG 20010904//EN"
 "http://www.w3.org/TR/2001/REC-SVG-20010904/DTD/svg10.dtd">
<svg version="1.0" xmlns="http://www.w3.org/2000/svg"
 width="400.000000pt" height="400.000000pt" viewBox="0 0 400.000000 400.000000"
 preserveAspectRatio="xMidYMid meet">
<metadata>
Created by potrace 1.11, written by Peter Selinger 2001-2013
</metadata>
<g transform="translate(0.000000,400.000000) scale(0.100000,-0.100000)"
fill="#000000" stroke="none">
<path d="M3407 3624 c-2 -2 -87 -7 -302 -19 -27 -2 -106 -6 -175 -9 -69 -4
-152 -8 -185 -10 -33 -2 -121 -7 -195 -11 -74 -3 -164 -8 -200 -10 -36 -3
-114 -7 -175 -10 -60 -3 -141 -8 -180 -10 -38 -3 -119 -7 -180 -10 -60 -3
-141 -8 -180 -10 -38 -3 -124 -7 -190 -10 -66 -3 -149 -8 -185 -10 -131 -8
-346 -20 -543 -30 -95 -4 -217 -14 -257 -20 -44 -6 -115 -17 -130 -20 -41 -8
-148 -49 -175 -68 -108 -75 -147 -177 -148 -382 0 -66 3 -138 6 -160 3 -22 9
-71 12 -110 3 -38 8 -88 11 -110 2 -22 7 -65 9 -95 6 -60 13 -121 20 -160 2
-14 7 -45 11 -70 8 -65 59 -256 84 -320 99 -254 288 -455 446 -476 27 -3 51
-6 54 -7 4 -1 105 14 120 17 29 8 111 44 135 60 17 11 68 54 115 95 87 78 130
116 166 148 53 46 172 152 218 194 l50 47 -29 34 c-42 50 -63 74 -124 148 -29
36 -56 67 -60 70 -11 9 -127 155 -145 182 -64 99 -72 248 -20 358 102 213 344
286 551 164 36 -21 112 -99 198 -205 103 -126 201 -239 206 -239 4 0 20 12 37
28 50 45 160 143 262 232 35 30 68 60 74 65 72 69 154 127 207 146 155 57 326
8 429 -122 119 -151 108 -365 -27 -504 -23 -23 -61 -58 -183 -165 -47 -41 -87
-77 -90 -80 -3 -3 -41 -37 -85 -75 -44 -39 -92 -81 -107 -95 l-27 -25 106
-125 c58 -69 124 -147 147 -174 22 -27 50 -60 61 -74 11 -13 59 -70 107 -126
111 -128 157 -215 163 -310 20 -293 -276 -500 -538 -376 -81 38 -94 51 -236
220 -62 74 -130 155 -151 180 -21 25 -68 81 -105 125 -37 44 -81 97 -99 117
l-31 37 -46 -42 c-50 -46 -137 -123 -274 -243 -219 -190 -292 -287 -303 -404
-16 -173 159 -275 503 -295 55 -3 134 -8 175 -10 41 -3 113 -7 160 -10 47 -2
123 -7 170 -10 47 -2 130 -7 185 -10 55 -4 129 -8 165 -10 36 -2 115 -7 175
-10 61 -4 135 -8 165 -11 30 -2 147 -6 260 -9 164 -4 217 -2 265 10 215 55
280 188 310 635 3 41 7 111 10 155 3 44 7 109 10 145 3 36 7 110 10 165 3 55
7 125 10 155 3 30 8 100 11 155 9 167 12 206 18 295 3 47 8 126 11 175 3 50 8
124 11 165 3 41 7 107 9 145 2 39 7 115 12 170 13 170 8 422 -10 503 -42 192
-140 299 -317 347 -30 8 -238 24 -243 19z"/>
</g>
</svg>
