<?xml version="1.0" encoding="utf-8"?>
<!-- Generator: Adobe Illustrator 15.0.2, SVG Export Plug-In  -->
<!DOCTYPE svg PUBLIC "-//W3C//DTD SVG 1.1//EN" "http://www.w3.org/Graphics/SVG/1.1/DTD/svg11.dtd" [
	<!ENTITY ns_flows "http://ns.adobe.com/Flows/1.0/">
]>
<svg version="1.1"
	 xmlns="http://www.w3.org/2000/svg" xmlns:xlink="http://www.w3.org/1999/xlink" xmlns:a="http://ns.adobe.com/AdobeSVGViewerExtensions/3.0/"
	 x="0px" y="0px" width="85px" height="479px" viewBox="-10.92 -7.684 85 479"
	 overflow="visible" enable-background="new -10.92 -7.684 85 479" xml:space="preserve">
<defs>
</defs>
<path fill="none" stroke="#FFFFFF" stroke-width="1.468" stroke-miterlimit="10" d="M5.102,359.002
	c3.179-4.634,7.414-7.017,9.931-7.944c0.396-0.132,0.795-0.265,1.19-0.265c0.398,0,0.662,0.265,0.928,0.794l5.164,10.062
	c0.396,0.662,0.528,1.192,0.528,1.59c0,0.396-0.396,0.662-1.058,1.059c-0.133,0.133-0.531,0.396-1.193,0.53
	c-4.104,1.589-6.222,5.163-6.222,8.87v1.191c0,5.297,4.237,9.533,9.4,9.533h16.02c5.296,0,9.401-4.236,9.401-9.533v-1.191
	c0-2.78-1.456-6.09-5.562-8.342c-1.19-0.662-1.456-0.793-2.382-1.323c-1.193-0.662-0.531-1.589,0-2.515l4.5-9.137
	c0.531-1.191,0.795-1.854,2.251-1.456c1.722,0.529,5.032,2.25,8.872,5.958c3.971,3.84,5.958,9.4,5.958,16.814v1.191
	c0,14.829-9.27,24.494-23.039,24.494h-16.02c-13.771,0-23.037-9.798-23.037-24.494v-1.191C0.734,367.74,2.19,362.842,5.102,359.002z
	"/>
<path fill="none" stroke="#FFFFFF" stroke-width="1.468" stroke-miterlimit="10" d="M60.842,288.037
	c0.928,0,1.324,0.397,1.324,1.324v12.445c0,0.928-0.396,1.324-1.324,1.324H47.737c-0.928,0-1.324,0.397-1.324,1.324v16.815
	c0,0.926,0.396,1.456,1.324,1.456h13.105c0.928,0,1.324,0.529,1.324,1.457v12.18c0,0.928-0.529,1.325-1.455,1.325H24.434
	c-13.771,0-23.037-9.534-23.037-24.362v-0.927c0-14.829,9.266-24.362,23.037-24.362H60.842z M24.434,303.13
	c-5.297,0-9.4,3.973-9.4,9.269v0.927c0,5.297,4.236,9.4,9.4,9.4h7.547c1.059,0,1.588-0.53,1.588-1.456v-16.683
	c0-1.06-0.529-1.588-1.588-1.588L24.434,303.13z"/>
<path fill="none" stroke="#FFFFFF" stroke-width="1.468" stroke-miterlimit="10" d="M61.506,222.368v10.194
	c0,1.722-0.135,2.119-1.59,3.179l-29.129,21.448c-0.662,0.662-0.527,0.927,0.266,0.927h29.129c0.926,0,1.324,0.397,1.324,1.323
	v12.313c0,0.927-0.398,1.324-1.324,1.324H3.381c-0.928,0-1.324-0.397-1.324-1.324v-10.194c0-1.06,0-2.119,2.252-3.574l28.863-21.317
	c0.529-0.397,0.396-0.661-0.133-0.661H3.381c-0.928,0-1.324-0.531-1.324-1.457v-12.181c0-0.927,0.396-1.324,1.324-1.324h56.801
	C61.108,221.043,61.506,221.441,61.506,222.368z"/>
<path fill="none" stroke="#FFFFFF" stroke-width="1.468" stroke-miterlimit="10" d="M61.506,154.181v10.195
	c0,1.721-0.135,2.118-1.59,3.178l-29.129,21.448c-0.662,0.662-0.527,0.927,0.266,0.927h29.129c0.926,0,1.324,0.397,1.324,1.324
	v12.313c0,0.927-0.398,1.323-1.324,1.323H3.381c-0.928,0-1.324-0.396-1.324-1.323v-10.195c0-1.06,0-2.118,2.252-3.573l28.863-21.318
	c0.529-0.396,0.396-0.661-0.133-0.661H3.381c-0.928,0-1.324-0.53-1.324-1.456v-12.182c0-0.926,0.396-1.323,1.324-1.323h56.801
	C61.108,152.858,61.506,153.255,61.506,154.181z"/>
<path fill="none" stroke="#FFFFFF" stroke-width="1.468" stroke-miterlimit="10" d="M17.547,89.437l4.504,9.27
	c0.926,1.721-0.135,2.779-1.723,3.309c-4.104,1.59-5.959,5.297-5.959,9.137v1.191c0,5.164,4.369,9.4,9.137,9.4h0.928
	c0.926,0,1.324-0.396,1.324-1.324v-17.08c0-0.926,0.396-1.324,1.322-1.324h9.666c0.926,0,1.324,0.398,1.324,1.324v17.08
	c0,0.928,0.396,1.324,1.324,1.324h0.662c4.898,0,9.135-4.236,9.135-9.4v-1.191c0-4.105-3.443-7.15-7.15-9.268
	c-0.926-0.531-1.455-0.928-1.455-1.191c0-0.266,0.266-0.795,0.662-1.723l4.5-9.268c1.061-3.045,4.768-1.059,11.123,4.502
	c3.973,3.973,5.957,9.664,5.957,16.947v1.191c0,14.697-9.268,24.494-23.037,24.494h-16.02c-13.771,0-23.037-10.062-23.037-24.494
	v-1.191c0-5.959,1.322-10.725,4.369-14.83c3.176-4.369,7.414-7.016,9.928-7.943C15.959,87.982,16.887,87.982,17.547,89.437z"/>
<path fill="none" stroke="#FFFFFF" stroke-width="1.468" stroke-miterlimit="10" d="M26.551,47.337
	c2.913-10.725,8.606-16.021,16.947-16.021c12.182,0,19.199,9.137,19.199,22.906v0.662c0,7.547-2.119,13.504-6.356,17.609
	c-4.235,4.104-7.811,5.561-9.003,5.561c-0.396,0-0.795-0.266-0.927-0.662l-5.164-10.857c-0.132-0.133-0.132-0.396-0.132-0.662
	c0-0.396,0.265-0.662,0.927-0.926c4.237-2.648,7.414-5.297,7.414-10.062v-0.662c0-4.635-2.383-7.547-5.56-7.547
	c-5.032,0-4.768,4.502-7.282,15.49c-2.516,9.137-7.415,15.357-16.418,15.357c-15.359,0-19.331-14.166-19.331-24.096
	c0-5.428,0.927-10.857,3.045-15.623l1.325-3.045c0.396-1.193,0.662-1.854,2.646-1.193l8.475,3.047
	c1.191,0.396,1.721,1.191,1.457,2.383l-1.192,3.574c-1.059,3.311-2.251,6.355-2.647,10.062c-0.134,0.928-0.134,1.986-0.134,3.178
	c0,3.311,1.192,6.885,5.031,6.885C24.168,62.695,23.639,58.062,26.551,47.337z"/>
<path fill="none" stroke="#FFFFFF" stroke-width="1.468" stroke-miterlimit="10" d="M60.521,9.472c0,4.898-4.104,8.738-8.738,8.738
	c-4.768,0-8.74-3.84-8.74-8.738c0-4.635,4.105-8.738,8.74-8.738C56.417,0.734,60.521,4.837,60.521,9.472z"/>
<path fill-rule="evenodd" clip-rule="evenodd" fill="#FFFFFF" d="M1.621,430.544l0.363,3.172c0.634,4.559,1.867,8.971,5.383,12.199
	c1.896,1.742,4.309,2.322,7.848,0.445l8.356-7.398l-5.013-5.986c-2.102-2.512-1.77-6.252,0.742-8.352
	c2.51-2.102,6.25-1.77,8.353,0.742l4.8,5.732l7.033-6.227c2.447-2.166,6.187-1.938,8.352,0.51c2.166,2.447,1.936,6.188-0.511,8.352
	l-7.272,6.441l7.655,9.141c2.101,2.512,1.769,6.25-0.741,8.352c-2.512,2.102-6.252,1.77-8.353-0.742l-7.444-8.889l-5.529,4.895
	c-1.727,1.529-3.219,2.586-3.937,4.896c-1.022,3.293,2.403,5.01,6.927,5.273l22.73,1.33c7.685,0.449,8.686-2.043,9.209-10.176
	c0.596-9.312,1.193-18.623,1.79-27.934c0.51-7.969-1.107-12.207-9.03-11.775c-13.924,0.76-27.85,1.518-41.775,2.277
	c-8.422,0.459-10.785,1.643-10.4,8.951C1.333,427.324,1.464,428.929,1.621,430.544"/>
</svg>
