<?xml version="1.0" encoding="utf-8"?>
<!-- Generator: Adobe Illustrator 15.0.2, SVG Export Plug-In  -->
<!DOCTYPE svg PUBLIC "-//W3C//DTD SVG 1.1//EN" "http://www.w3.org/Graphics/SVG/1.1/DTD/svg11.dtd" [
	<!ENTITY ns_flows "http://ns.adobe.com/Flows/1.0/">
]>
<svg version="1.1"
	 xmlns="http://www.w3.org/2000/svg" xmlns:xlink="http://www.w3.org/1999/xlink" xmlns:a="http://ns.adobe.com/AdobeSVGViewerExtensions/3.0/"
	 x="0px" y="0px" width="422px" height="74px" viewBox="-5.553 -7.961 422 74"
	 overflow="visible" enable-background="new -5.553 -7.961 422 74" xml:space="preserve">
<defs>
</defs>
<path fill="none" stroke="#ED2E39" stroke-width="1.468" stroke-miterlimit="10" d="M41.116,5.102
	c4.634,3.179,7.017,7.414,7.944,9.931c0.132,0.396,0.265,0.795,0.265,1.19c0,0.398-0.265,0.662-0.794,0.928l-10.062,5.164
	c-0.662,0.396-1.192,0.528-1.59,0.528c-0.396,0-0.662-0.396-1.059-1.058c-0.133-0.133-0.396-0.531-0.53-1.193
	c-1.589-4.104-5.163-6.222-8.87-6.222h-1.191c-5.297,0-9.533,4.237-9.533,9.4v16.02c0,5.296,4.236,9.401,9.533,9.401h1.191
	c2.78,0,6.09-1.456,8.342-5.562c0.662-1.19,0.793-1.456,1.323-2.382c0.662-1.193,1.589-0.531,2.515,0l9.137,4.5
	c1.191,0.531,1.854,0.795,1.456,2.251c-0.529,1.722-2.25,5.032-5.958,8.872c-3.84,3.971-9.4,5.958-16.814,5.958h-1.191
	c-14.829,0-24.494-9.27-24.494-23.039v-16.02C0.734,10,10.532,0.734,25.229,0.734h1.191C32.379,0.734,37.276,2.19,41.116,5.102z"/>
<path fill="none" stroke="#ED2E39" stroke-width="1.468" stroke-miterlimit="10" d="M112.082,60.18c0,0.928-0.397,1.324-1.324,1.324
	H98.312c-0.928,0-1.324-0.396-1.324-1.324V47.074c0-0.927-0.397-1.324-1.324-1.324H78.849c-0.926,0-1.456,0.397-1.456,1.324V60.18
	c0,0.928-0.529,1.324-1.457,1.324h-12.18c-0.928,0-1.325-0.529-1.325-1.456V23.771c0-13.771,9.534-23.037,24.362-23.037h0.927
	c14.829,0,24.362,9.267,24.362,23.037V60.18z M96.988,23.771c0-5.297-3.973-9.4-9.269-9.4h-0.927c-5.297,0-9.4,4.237-9.4,9.4v7.547
	c0,1.059,0.53,1.589,1.456,1.589h16.683c1.06,0,1.588-0.53,1.588-1.589L96.988,23.771z"/>
<path fill="none" stroke="#ED2E39" stroke-width="1.468" stroke-miterlimit="10" d="M177.751,61.505h-10.194
	c-1.722,0-2.119-0.134-3.179-1.59L142.93,30.788c-0.662-0.662-0.927-0.528-0.927,0.266v29.128c0,0.927-0.397,1.324-1.323,1.324
	h-12.313c-0.927,0-1.324-0.397-1.324-1.324v-56.8c0-0.928,0.397-1.324,1.324-1.324h10.194c1.06,0,2.119,0,3.574,2.251l21.317,28.863
	c0.397,0.529,0.661,0.396,0.661-0.133V3.381c0-0.928,0.531-1.324,1.457-1.324h12.181c0.927,0,1.324,0.396,1.324,1.324v56.8
	C179.075,61.108,178.678,61.505,177.751,61.505z"/>
<path fill="none" stroke="#ED2E39" stroke-width="1.468" stroke-miterlimit="10" d="M245.938,61.505h-10.195
	c-1.721,0-2.118-0.134-3.178-1.59l-21.448-29.128c-0.662-0.662-0.927-0.528-0.927,0.266v29.128c0,0.927-0.397,1.324-1.324,1.324
	h-12.313c-0.927,0-1.323-0.397-1.323-1.324v-56.8c0-0.928,0.396-1.324,1.323-1.324h10.195c1.06,0,2.118,0,3.573,2.251l21.318,28.863
	c0.396,0.529,0.661,0.396,0.661-0.133V3.381c0-0.928,0.53-1.324,1.456-1.324h12.182c0.926,0,1.323,0.396,1.323,1.324v56.8
	C247.261,61.108,246.863,61.505,245.938,61.505z"/>
<path fill="none" stroke="#ED2E39" stroke-width="1.468" stroke-miterlimit="10" d="M310.682,17.547l-9.27,4.503
	c-1.721,0.927-2.779-0.134-3.309-1.723c-1.59-4.104-5.297-5.958-9.137-5.958h-1.191c-5.164,0-9.4,4.369-9.4,9.136v0.928
	c0,0.927,0.396,1.324,1.324,1.324h17.08c0.926,0,1.324,0.396,1.324,1.323v9.665c0,0.927-0.398,1.324-1.324,1.324h-17.08
	c-0.928,0-1.324,0.397-1.324,1.324v0.662c0,4.898,4.236,9.136,9.4,9.136h1.191c4.105,0,7.15-3.443,9.268-7.15
	c0.531-0.927,0.928-1.456,1.191-1.456c0.266,0,0.795,0.266,1.723,0.662l9.268,4.501c3.045,1.061,1.059,4.768-4.502,11.122
	c-3.973,3.973-9.664,5.958-16.947,5.958h-1.191c-14.697,0-24.494-9.268-24.494-23.038v-16.02c0-13.771,10.062-23.037,24.494-23.037
	h1.191c5.959,0,10.725,1.323,14.83,4.369c4.369,3.177,7.016,7.414,7.943,9.929C312.137,15.958,312.137,16.886,310.682,17.547z"/>
<path fill="none" stroke="#ED2E39" stroke-width="1.468" stroke-miterlimit="10" d="M352.781,26.683
	c10.725,2.913,16.021,8.606,16.021,16.947c0,12.182-9.137,19.199-22.906,19.199h-0.662c-7.547,0-13.504-2.119-17.609-6.356
	c-4.104-4.235-5.561-7.811-5.561-9.003c0-0.396,0.266-0.795,0.662-0.927l10.857-5.164c0.133-0.132,0.396-0.132,0.662-0.132
	c0.396,0,0.662,0.265,0.926,0.927c2.648,4.237,5.297,7.414,10.062,7.414h0.662c4.635,0,7.547-2.383,7.547-5.56
	c0-5.032-4.502-4.768-15.49-7.282c-9.137-2.516-15.357-7.415-15.357-16.418c0-15.359,14.166-19.331,24.096-19.331
	c5.428,0,10.857,0.927,15.623,3.045l3.045,1.325c1.193,0.396,1.854,0.662,1.193,2.646l-3.047,8.475
	c-0.396,1.191-1.191,1.721-2.383,1.457l-3.574-1.192c-3.311-1.059-6.355-2.251-10.062-2.647c-0.928-0.134-1.986-0.134-3.178-0.134
	c-3.311,0-6.885,1.192-6.885,5.031C337.424,24.3,342.057,23.771,352.781,26.683z"/>
<path fill="none" stroke="#ED2E39" stroke-width="1.468" stroke-miterlimit="10" d="M390.646,62.83
	c-4.898,0-8.738-4.104-8.738-8.738c0-4.768,3.84-8.74,8.738-8.74c4.635,0,8.738,4.105,8.738,8.74
	C399.385,58.725,395.281,62.83,390.646,62.83z"/>
</svg>
