<?xml version="1.0" encoding="utf-8"?>
<!-- Generator: Adobe Illustrator 15.0.2, SVG Export Plug-In  -->
<!DOCTYPE svg PUBLIC "-//W3C//DTD SVG 1.1//EN" "http://www.w3.org/Graphics/SVG/1.1/DTD/svg11.dtd" [
	<!ENTITY ns_flows "http://ns.adobe.com/Flows/1.0/">
]>
<svg version="1.1"
	 xmlns="http://www.w3.org/2000/svg" xmlns:xlink="http://www.w3.org/1999/xlink" xmlns:a="http://ns.adobe.com/AdobeSVGViewerExtensions/3.0/"
	 x="0px" y="0px" width="334px" height="80px" viewBox="-5.464 693.31 334 80"
	 overflow="visible" enable-background="new -5.464 693.31 334 80" xml:space="preserve">
<defs>
</defs>
<rect x="299.469" fill="none" width="595.275" height="841.89"/>
<path fill="none" stroke="#ED2F3A" stroke-width="1.468" stroke-miterlimit="10" d="M36.482,740.87c0,5.164-4.104,9.269-9.4,9.269
	h-9.931c-0.926,0-1.323-0.396-1.323-1.324v-29.525c0-0.927,0.397-1.324,1.323-1.324h9.931c5.163,0,9.4,4.237,9.4,9.401V740.87z
	 M51.443,739.678v-11.122c0-14.961-9.4-24.229-24.361-24.229H2.058c-0.927,0-1.324,0.396-1.324,1.324v56.799
	c0,0.927,0.397,1.324,1.324,1.324h25.024C42.043,763.775,51.443,754.507,51.443,739.678z"/>
<path fill="none" stroke="#ED2F3A" stroke-width="1.468" stroke-miterlimit="10" d="M96.061,743.65c0-5.163-3.973-9.003-9.268-9.003
	c-5.428,0-9.268,3.84-9.268,9.003c0,4.767,3.972,8.871,9.268,8.871C91.958,752.521,96.061,748.417,96.061,743.65z M112.213,762.451
	c0,0.927-0.396,1.324-1.324,1.324H99.768c-0.397,0-0.397-0.133-0.795-0.133c-0.926-1.323-0.926-3.442-1.985-2.118
	c-3.045,1.986-6.62,3.045-10.195,3.178c-12.181,0-23.832-7.149-23.832-21.052c0-13.372,9.93-21.448,23.7-21.448
	c2.912,0,5.561,0.529,7.944,1.589c1.19,0.529,1.721-0.133,1.721-1.192c0-3.044-3.707-6.487-9.401-6.487
	c-4.633,0-9.93,1.722-14.167,3.707c-0.794,0.265-1.323,0-1.721-0.927l-3.707-9.797c-0.397-0.795-0.132-1.324,0.795-1.589
	c7.017-3.178,11.254-4.502,18.8-4.502c15.359,0,25.289,8.738,25.289,22.509V762.451z"/>
<path fill="none" stroke="#ED2F3A" stroke-width="1.468" stroke-miterlimit="10" d="M152.463,761.921
	c-0.397,1.191-0.53,1.854-2.78,1.854h-8.209c-1.986,0-2.118,0.132-2.781-1.854l-19.33-55.078c-0.397-1.191-0.265-2.516,1.192-2.516
	h11.254c1.986,0,2.912,0.927,3.311,2.383c0-0.265,7.148,25.024,10.194,32.968c0.397,0.794,0.661,0.794,0.926,0
	c1.192-3.442,2.251-7.018,3.443-10.856c2.25-7.812,3.839-13.24,6.354-21.582c0.397-0.927,0.795-2.912,3.311-2.912h11.65
	c1.06,0,1.59,0.927,1.192,1.854L152.463,761.921z"/>
<path fill="none" stroke="#ED2F3A" stroke-width="1.468" stroke-miterlimit="10" d="M212.837,726.041
	c0-5.296-4.104-9.268-9.005-9.268h-0.528c-5.164,0-9.003,4.237-9.003,9.665v15.756c0,5.429,4.104,9.136,9.003,9.136h0.528
	c4.768,0,9.005-3.84,9.005-9.136V726.041z M203.304,764.966c-13.373,0-24.229-8.87-24.229-21.846v-17.741
	c0-13.108,9.931-22.376,24.229-22.376h0.528c14.035,0,24.363,9.665,24.363,22.376v16.946c0,13.108-9.931,22.641-24.363,22.641
	H203.304z"/>
<path fill="none" stroke="#ED2F3A" stroke-width="1.468" stroke-miterlimit="10" d="M255.601,721.275
	c0-3.84,3.575-5.031,6.885-5.031c1.192,0,2.251,0,3.178,0.132c3.707,0.397,6.753,1.589,10.062,2.648l3.575,1.191
	c1.191,0.265,1.985-0.265,2.383-1.456l3.045-8.474c0.662-1.986,0-2.251-1.191-2.648l-3.045-1.324
	c-4.767-2.118-10.195-3.045-15.623-3.045c-9.931,0-24.098,3.972-24.098,19.33c0,9.004,6.225,13.902,15.359,16.418
	c10.989,2.516,15.49,2.251,15.49,7.282c0,3.178-2.912,5.561-7.547,5.561h-0.662c-4.766,0-7.414-3.178-10.062-7.414
	c-0.265-0.662-0.53-0.927-0.927-0.927c-0.266,0-0.53,0-0.662,0.132l-10.857,5.164c-0.396,0.132-0.662,0.529-0.662,0.927
	c0,1.191,1.457,4.767,5.562,9.003c4.104,4.237,10.063,6.355,17.608,6.355h0.662c13.77,0,22.905-7.018,22.905-19.198
	c0-8.341-5.296-14.034-16.021-16.947C260.236,726.041,255.601,726.571,255.601,721.275z"/>
<path fill="none" stroke="#ED2F3A" stroke-width="1.468" stroke-miterlimit="10" d="M317.565,756.361
	c0-4.635-4.105-8.738-8.738-8.738c-4.9,0-8.74,3.972-8.74,8.738c0,4.634,3.84,8.738,8.74,8.738
	C313.459,765.099,317.565,760.995,317.565,756.361z"/>
</svg>
