<?xml version="1.0" encoding="utf-8"?>
<!-- Generator: Adobe Illustrator 15.0.2, SVG Export Plug-In  -->
<!DOCTYPE svg PUBLIC "-//W3C//DTD SVG 1.1//EN" "http://www.w3.org/Graphics/SVG/1.1/DTD/svg11.dtd" [
	<!ENTITY ns_flows "http://ns.adobe.com/Flows/1.0/">
]>
<svg version="1.1"
	 xmlns="http://www.w3.org/2000/svg" xmlns:xlink="http://www.w3.org/1999/xlink" xmlns:a="http://ns.adobe.com/AdobeSVGViewerExtensions/3.0/"
	 x="0px" y="0px" width="84px" height="417px" viewBox="279.153 226.647 84 417"
	 overflow="visible" enable-background="new 279.153 226.647 84 417" xml:space="preserve">
<defs>
</defs>
<rect fill="none" width="595.275" height="841.89"/>
<path fill="none" stroke="#FFFFFF" stroke-width="1.468" stroke-miterlimit="10" d="M326.862,527.029c5.164,0,9.269,4.104,9.269,9.4
	v9.931c0,0.927-0.397,1.323-1.323,1.323H305.28c-0.926,0-1.323-0.396-1.323-1.323v-9.931c0-5.163,4.237-9.4,9.401-9.4H326.862z
	 M325.671,512.068h-11.122c-14.961,0-24.229,9.4-24.229,24.361v25.023c0,0.928,0.397,1.324,1.326,1.324h56.797
	c0.928,0,1.326-0.396,1.326-1.324v-25.023C349.769,521.468,340.5,512.068,325.671,512.068z"/>
<path fill="none" stroke="#FFFFFF" stroke-width="1.468" stroke-miterlimit="10" d="M329.841,467.45
	c-5.162,0-9.002,3.972-9.002,9.269c0,5.428,3.84,9.268,9.002,9.268c4.768,0,8.871-3.973,8.871-9.268
	C338.712,471.554,334.608,467.45,329.841,467.45z M348.643,451.296c0.927,0,1.323,0.397,1.323,1.324v11.122
	c0,0.397-0.133,0.397-0.133,0.794c-1.322,0.928-3.441,0.928-2.117,1.986c1.986,3.045,3.045,6.62,3.178,10.195
	c0,12.181-7.148,23.832-21.053,23.832c-13.371,0-21.447-9.93-21.447-23.7c0-2.912,0.529-5.56,1.589-7.944
	c0.529-1.191-0.133-1.721-1.192-1.721c-3.045,0-6.487,3.707-6.487,9.4c0,4.633,1.722,9.931,3.707,14.168
	c0.265,0.793,0,1.322-0.927,1.721l-9.797,3.707c-0.795,0.396-1.324,0.132-1.588-0.795c-3.179-7.018-4.503-11.254-4.503-18.801
	c0-15.358,8.738-25.289,22.509-25.289H348.643z"/>
<path fill="none" stroke="#FFFFFF" stroke-width="1.468" stroke-miterlimit="10" d="M347.913,411.048
	c1.19,0.396,1.854,0.529,1.854,2.779v8.209c0,1.986,0.131,2.118-1.854,2.781l-55.078,19.33c-1.192,0.396-2.517,0.265-2.517-1.192
	v-11.254c0-1.985,0.928-2.912,2.384-3.31c-0.265,0,25.024-7.149,32.968-10.195c0.794-0.396,0.794-0.661,0-0.926
	c-3.443-1.192-7.018-2.251-10.857-3.443c-7.811-2.25-13.239-3.839-21.582-6.355c-0.926-0.396-2.912-0.793-2.912-3.31v-11.651
	c0-1.059,0.928-1.589,1.854-1.192L347.913,411.048z"/>
<path fill="none" stroke="#FFFFFF" stroke-width="1.468" stroke-miterlimit="10" d="M312.1,350.673
	c-5.296,0-9.267,4.105-9.267,9.004v0.529c0,5.164,4.236,9.003,9.664,9.003h15.756c5.429,0,9.136-4.104,9.136-9.003v-0.529
	c0-4.767-3.841-9.004-9.136-9.004H312.1z M351.025,360.207c0,13.373-8.87,24.229-21.847,24.229h-17.74
	c-13.107,0-22.376-9.93-22.376-24.229v-0.529c0-14.035,9.665-24.362,22.376-24.362h16.945c13.109,0,22.642,9.93,22.642,24.362
	V360.207z"/>
<path fill="none" stroke="#FFFFFF" stroke-width="1.468" stroke-miterlimit="10" d="M307.136,307.91c-3.84,0-5.03-3.575-5.03-6.885
	c0-1.192,0-2.251,0.131-3.178c0.397-3.707,1.588-6.752,2.648-10.062l1.191-3.575c0.265-1.192-0.264-1.986-1.457-2.383l-8.473-3.045
	c-1.986-0.662-2.25,0-2.648,1.191l-1.324,3.045c-2.118,4.767-3.045,10.196-3.045,15.623c0,9.931,3.972,24.098,19.33,24.098
	c9.004,0,13.902-6.224,16.418-15.359c2.516-10.99,2.251-15.491,7.281-15.491c3.179,0,5.562,2.913,5.562,7.547v0.662
	c0,4.766-3.178,7.415-7.414,10.062c-0.662,0.265-0.927,0.53-0.927,0.927c0,0.265,0,0.53,0.132,0.662l5.164,10.857
	c0.132,0.397,0.528,0.662,0.927,0.662c1.191,0,4.766-1.456,9.004-5.561c4.236-4.104,6.354-10.063,6.354-17.609v-0.662
	c0-13.769-7.017-22.905-19.198-22.905c-8.341,0-14.034,5.296-16.947,16.021C311.902,303.275,312.432,307.91,307.136,307.91z"/>
<path fill="none" stroke="#FFFFFF" stroke-width="1.468" stroke-miterlimit="10" d="M341.284,245.947
	c-4.635,0-8.737,4.104-8.737,8.738c0,4.9,3.971,8.739,8.737,8.739c4.634,0,8.737-3.839,8.737-8.739
	C350.021,250.051,345.918,245.947,341.284,245.947z"/>
<path fill-rule="evenodd" clip-rule="evenodd" fill="#FFFFFF" d="M289.883,597.253l0.363,3.172
	c0.634,4.559,1.867,8.971,5.383,12.199c1.896,1.742,4.309,2.322,7.848,0.445l8.356-7.398l-5.013-5.986
	c-2.102-2.512-1.77-6.252,0.742-8.352c2.51-2.102,6.25-1.77,8.353,0.742l4.8,5.732l7.033-6.227c2.447-2.166,6.187-1.938,8.352,0.51
	c2.166,2.447,1.936,6.188-0.511,8.352l-7.272,6.441l7.655,9.141c2.101,2.512,1.769,6.25-0.741,8.352
	c-2.512,2.102-6.252,1.77-8.353-0.742l-7.444-8.889l-5.529,4.895c-1.727,1.529-3.219,2.586-3.937,4.896
	c-1.022,3.293,2.403,5.01,6.927,5.273l22.73,1.33c7.685,0.449,8.686-2.043,9.209-10.176c0.596-9.312,1.193-18.623,1.79-27.934
	c0.51-7.969-1.107-12.207-9.03-11.775c-13.924,0.76-27.85,1.518-41.775,2.277c-8.422,0.459-10.785,1.643-10.4,8.951
	C289.596,594.033,289.727,595.638,289.883,597.253"/>
</svg>
