<?xml version="1.0" encoding="utf-8"?>
<!-- Generator: Adobe Illustrator 15.0.2, SVG Export Plug-In  -->
<!DOCTYPE svg PUBLIC "-//W3C//DTD SVG 1.1//EN" "http://www.w3.org/Graphics/SVG/1.1/DTD/svg11.dtd" [
	<!ENTITY ns_flows "http://ns.adobe.com/Flows/1.0/">
]>
<svg version="1.1"
	 xmlns="http://www.w3.org/2000/svg" xmlns:xlink="http://www.w3.org/1999/xlink" xmlns:a="http://ns.adobe.com/AdobeSVGViewerExtensions/3.0/"
	 x="0px" y="0px" width="195px" height="159px" viewBox="41.582 184.066 195 159"
	 overflow="visible" enable-background="new 41.582 184.066 195 159" xml:space="preserve">
<defs>
</defs>
<path fill-rule="evenodd" clip-rule="evenodd" fill="none" stroke="#D0D2D3" stroke-miterlimit="10" d="M43.427,235.062
	l1.147,10.039c2.008,14.437,5.919,28.401,17.042,38.627c6.004,5.518,13.638,7.349,24.847,1.402l26.456-23.421l-15.87-18.949
	c-6.652-7.951-5.6-19.793,2.351-26.442c7.949-6.653,19.789-5.601,26.441,2.351l15.199,18.147l22.266-19.715
	c7.746-6.854,19.588-6.129,26.442,1.617c6.855,7.749,6.131,19.585-1.617,26.441l-23.028,20.389l24.239,28.944
	c6.651,7.953,5.6,19.789-2.35,26.442c-7.951,6.649-19.788,5.599-26.44-2.35l-23.57-28.144l-17.502,15.494
	c-5.471,4.843-10.191,8.191-12.465,15.503c-3.237,10.429,7.61,15.864,21.926,16.698l71.966,4.212
	c24.33,1.424,27.505-6.473,29.156-32.219c1.887-29.48,3.781-58.961,5.669-88.439c1.616-25.223-3.505-38.641-28.589-37.278
	c-44.085,2.404-88.171,4.804-132.26,7.207c-26.664,1.454-34.144,5.206-32.927,28.345C42.518,224.866,42.93,229.946,43.427,235.062"
	/>
<g>
	<g>
		<g>
			<defs>
				<rect id="SVGID_1_" width="595.277" height="841.89"/>
			</defs>
			<clipPath id="SVGID_2_">
				<use xlink:href="#SVGID_1_"  overflow="visible"/>
			</clipPath>
		</g>
	</g>
</g>
</svg>
