<?xml version="1.0" encoding="utf-8"?>
<!-- Generator: Adobe Illustrator 15.0.2, SVG Export Plug-In  -->
<!DOCTYPE svg PUBLIC "-//W3C//DTD SVG 1.1//EN" "http://www.w3.org/Graphics/SVG/1.1/DTD/svg11.dtd" [
	<!ENTITY ns_flows "http://ns.adobe.com/Flows/1.0/">
]>
<svg version="1.1"
	 xmlns="http://www.w3.org/2000/svg" xmlns:xlink="http://www.w3.org/1999/xlink" xmlns:a="http://ns.adobe.com/AdobeSVGViewerExtensions/3.0/"
	 x="0px" y="0px" width="282px" height="230px" viewBox="41.582 184.066 282 230"
	 overflow="visible" enable-background="new 41.582 184.066 282 230" xml:space="preserve">
<defs>
</defs>
<path opacity="0.5" fill-rule="evenodd" clip-rule="evenodd" fill="none" stroke="#D0D2D3" stroke-miterlimit="10" d="
	M44.158,258.313l1.673,14.638c2.928,21.051,8.631,41.415,24.851,56.326c8.755,8.045,19.886,10.716,36.231,2.045l38.578-34.152
	l-23.142-27.631c-9.701-11.594-8.166-28.862,3.427-38.558c11.592-9.702,28.856-8.167,38.557,3.428l22.163,26.462l32.468-28.748
	c11.295-9.994,28.562-8.938,38.558,2.357c9.997,11.3,8.94,28.559-2.358,38.556l-33.58,29.731l35.345,42.206
	c9.699,11.596,8.166,28.855-3.426,38.558c-11.594,9.696-28.854,8.165-38.555-3.427l-34.37-41.039l-25.521,22.593
	c-7.978,7.062-14.861,11.944-18.176,22.606c-4.72,15.207,11.098,23.133,31.972,24.349l104.939,6.142
	c35.478,2.077,40.107-9.439,42.515-46.981c2.751-42.988,5.514-85.977,8.266-128.961c2.357-36.779-5.11-56.346-41.688-54.358
	c-64.284,3.505-128.57,7.005-192.859,10.509c-38.881,2.12-49.788,7.59-48.013,41.333C42.832,243.445,43.433,250.854,44.158,258.313"
	/>
<g>
	<g>
		<g>
			<defs>
				<rect id="SVGID_1_" width="595.277" height="841.89"/>
			</defs>
			<clipPath id="SVGID_2_">
				<use xlink:href="#SVGID_1_"  overflow="visible"/>
			</clipPath>
		</g>
	</g>
</g>
</svg>
